#N canvas 443 360 482 374 10;
#X obj 268 92 loadbang;
#X obj 58 66 inlet;
#X msg 325 204 -1;
#X msg 263 205 1;
#X obj 174 278 - 1;
#X obj 58 89 t f b;
#X obj 264 279 array get \$1;
#X obj 263 324 array set \$1;
#X obj 58 300 tabwrite \$1;
#X obj 175 255 array size \$1;
#X connect 0 0 2 0;
#X connect 0 0 9 0;
#X connect 1 0 5 0;
#X connect 2 0 6 1;
#X connect 3 0 6 0;
#X connect 4 0 8 1;
#X connect 5 0 8 0;
#X connect 5 1 3 0;
#X connect 6 0 7 0;
#X connect 9 0 4 0;
