#N canvas 398 118 805 622 10;
#X obj 108 358 / 127;
#X obj 108 380 * 100;
#X obj 108 402 dbtorms;
#X obj 89 452 *~;
#X obj 108 424 line~ 0 100;
#X obj 107 125 hsl 128 15 0 127 0 0 empty empty cosine_panner 8 8 0
10 -262144 -1 -1 0 1;
#X obj 231 189 / 127;
#X obj 231 238 line~ 0 100;
#X obj 230 352 cos~;
#X obj 268 353 cos~;
#X obj 268 329 -~ 0.25;
#X obj 156 486 *~;
#X obj 231 211 * 0.25;
#X obj 200 487 *~;
#X obj 244 119 tgl 15 0 empty empty mute -4 -8 0 10 -258113 -1 -1 0
1;
#X obj 109 309 f;
#X obj 129 281 sel 1;
#X text 146 195 mute;
#X obj 129 212 swap 1;
#X obj 129 234 -;
#X obj 129 256 t f f;
#X obj 107 106 hsl 128 15 0 127 0 0 empty empty volume 8 8 0 10 -262144
-1 -1 0 1;
#X obj 88 65 inlet~;
#X obj 156 508 outlet~;
#X obj 200 539 outlet~;
#X obj 292 70 inlet~;
#X obj 231 260 +~;
#X text 296 49 panner inlet~;
#X obj 108 331 spigot 1;
#X connect 0 0 1 0;
#X connect 1 0 2 0;
#X connect 2 0 4 0;
#X connect 3 0 11 0;
#X connect 3 0 13 0;
#X connect 4 0 3 1;
#X connect 5 0 6 0;
#X connect 6 0 12 0;
#X connect 7 0 26 0;
#X connect 8 0 11 1;
#X connect 9 0 13 1;
#X connect 10 0 9 0;
#X connect 11 0 23 0;
#X connect 12 0 7 0;
#X connect 13 0 24 0;
#X connect 14 0 18 0;
#X connect 15 0 28 0;
#X connect 16 0 15 0;
#X connect 16 1 0 0;
#X connect 18 0 19 0;
#X connect 18 1 19 1;
#X connect 19 0 20 0;
#X connect 20 0 16 0;
#X connect 20 1 28 1;
#X connect 21 0 15 0;
#X connect 22 0 3 0;
#X connect 25 0 26 1;
#X connect 26 0 8 0;
#X connect 26 0 10 0;
#X connect 28 0 0 0;
#X coords 0 -1 1 1 165 45 2 100 100;
