#N canvas 243 293 450 300 10;
#X obj 267 218 list length;
#X obj 217 242 f;
#X msg 200 178 0;
#X obj 249 241 +;
#X obj 122 149 t a b a;
#X obj 200 200 t f f;
#X obj 207 138 inlet;
#X obj 114 52 inlet;
#X obj 93 268 array set \$1;
#X text 254 139 reset index;
#X text 249 178 update index;
#X connect 0 0 3 1;
#X connect 1 0 3 0;
#X connect 1 0 8 1;
#X connect 2 0 5 0;
#X connect 3 0 1 1;
#X connect 4 0 8 0;
#X connect 4 1 1 0;
#X connect 4 2 0 0;
#X connect 5 0 1 0;
#X connect 5 1 3 1;
#X connect 6 0 2 0;
#X connect 7 0 4 0;
