#N struct triangle-widget float x float y float fill-color float border-color
float x1 float y1 float x2 float y2 float x3 float y3;
#N canvas 594 201 968 682 10;
#X obj 298 149 pointer;
#N canvas 213 274 646 241 widget-template 0;
#X obj 41 45 struct triangle-widget float x float y float fill-color
float border-color float x1 float y1 float x2 float y2 float x3 float
y3;
#X obj 42 110 filledpolygon fill-color 111 1 x1 y1 x2 y2 x3 y3, f
66;
#X restore 33 22 pd widget-template;
#X floatatom 41 323 5 0 0 0 - - -, f 5;
#X obj 602 299 pointer;
#N canvas 267 178 350 339 random-list 0;
#X obj 111 71 inlet;
#X obj 134 163 until;
#X obj 134 205 list;
#X obj 174 205 t l;
#X obj 110 232 list;
#X obj 111 94 t b b b;
#X msg 134 139 8;
#X obj 110 254 outlet;
#X obj 134 185 random 400;
#X connect 0 0 5 0;
#X connect 1 0 8 0;
#X connect 2 0 3 0;
#X connect 2 0 4 1;
#X connect 3 0 2 1;
#X connect 4 0 7 0;
#X connect 5 0 4 0;
#X connect 5 1 6 0;
#X connect 5 2 2 1;
#X connect 6 0 1 0;
#X connect 8 0 2 0;
#X restore 161 149 pd random-list;
#X obj 41 296 random 999;
#X obj 234 323 pointer;
#X obj 161 254 t b p;
#X obj 161 73 until;
#X obj 161 95 t b b;
#X obj 603 412 t b f;
#X msg 650 271 next;
#X obj 41 236 tgl 15 0 empty empty empty 17 7 0 10 -262144 -1 -1 0
1;
#X obj 526 510 spigot 0;
#X obj 526 532 s loop;
#X obj 518 137 tgl 15 0 empty empty empty 17 7 0 10 -262144 -1 -1 0
1;
#X obj 650 209 r loop;
#N canvas -82 166 1351 682 draw 0;
#X scalar triangle-widget 64 102 59 0 144 107 396 50 77 148 \;;
#X scalar triangle-widget 421 184 271 0 306 82 42 333 -48 92 \;;
#X scalar triangle-widget 105 126 725 0 215 46 361 500 37 449 \;;
#X scalar triangle-widget 247 468 651 0 36 369 199 379 351 204 \;;
#X scalar triangle-widget 41 202 819 0 49 156 25 199 204 50 \;;
#X scalar triangle-widget 246 179 959 0 47 256 232 239 270 297 \;;
#X scalar triangle-widget 417 153 676 0 337 254 286 99 187 174 \;;
#X scalar triangle-widget -46 393 629 0 341 275 20 371 8 352 \;;
#X scalar triangle-widget 694 154 179 0 394 383 228 34 2 337 \;;
#X scalar triangle-widget 76 435 758 0 346 380 71 258 51 278 \;;
#X scalar triangle-widget 326 131 11 0 161 8 70 201 249 362 \;;
#X scalar triangle-widget 233 163 716 0 117 350 315 9 307 213 \;;
#X scalar triangle-widget 58 73 262 0 205 24 256 219 148 297 \;;
#X scalar triangle-widget 315 92 581 0 330 190 109 356 110 117 \;;
#X scalar triangle-widget 117 121 324 0 114 347 254 334 346 16 \;;
#X scalar triangle-widget 382 182 575 0 291 131 235 257 221 176 \;
;
#X scalar triangle-widget 276 130 50 0 107 319 159 217 116 18 \;;
#X scalar triangle-widget 271 93 205 0 325 226 98 95 24 1 \;;
#X scalar triangle-widget 261 -73 314 0 222 308 288 162 154 226 \;
;
#X scalar triangle-widget 169 140 83 0 188 357 130 78 328 229 \;;
#X scalar triangle-widget 43 88 963 0 326 106 387 291 183 388 \;;
#X scalar triangle-widget 183 83 885 0 256 226 188 238 168 120 \;;
#X scalar triangle-widget 34 334 666 0 110 130 24 148 149 79 \;;
#X scalar triangle-widget 247 269 959 0 334 165 352 35 3 360 \;;
#X scalar triangle-widget 224 114 138 0 289 222 192 304 224 297 \;
;
#X coords 0 682 1 681 85 60 0;
#X restore 34 48 pd draw;
#X msg 34 80 \; pd-draw clear \;;
#X msg 298 125 traverse pd-draw \, bang;
#X msg 602 245 traverse pd-draw \, next;
#X obj 161 178 append triangle-widget x y x1 y1 x2 y2 x3 y3, f 20
;
#X obj 602 366 get triangle-widget x y x1 y1 x2 y2 x3 y3;
#X obj 41 350 set triangle-widget fill-color;
#X msg 271 289 vnext 1;
#X obj 41 260 metro 2;
#X msg 270 268 next;
#X msg 234 246 traverse pd-draw \, next;
#X text 543 137 <-animation;
#X obj 635 585 set triangle-widget x y;
#X obj 602 324 t p p;
#X obj 636 450 t f b;
#X obj 636 500 +;
#X obj 648 545 +;
#X msg 205 51 4;
#X obj 668 478 random 11;
#X obj 668 501 - 5;
#X msg 161 51 25;
#X msg 518 179 1;
#X obj 518 201 t b f;
#X obj 518 157 sel 1;
#X obj 526 488 del 2;
#X connect 0 0 21 8;
#X connect 2 0 23 0;
#X connect 3 0 30 0;
#X connect 3 0 23 1;
#X connect 3 1 20 0;
#X connect 4 0 21 0;
#X connect 5 0 2 0;
#X connect 6 0 23 1;
#X connect 6 1 27 0;
#X connect 7 0 5 0;
#X connect 7 1 6 0;
#X connect 8 0 9 0;
#X connect 9 0 4 0;
#X connect 9 1 19 0;
#X connect 10 0 41 0;
#X connect 10 1 31 0;
#X connect 11 0 3 0;
#X connect 12 0 25 0;
#X connect 13 0 14 0;
#X connect 15 0 40 0;
#X connect 16 0 11 0;
#X connect 19 0 0 0;
#X connect 20 0 3 0;
#X connect 21 0 7 0;
#X connect 22 0 10 0;
#X connect 22 1 33 0;
#X connect 24 0 6 0;
#X connect 25 0 5 0;
#X connect 26 0 6 0;
#X connect 27 0 6 0;
#X connect 30 0 22 0;
#X connect 30 1 29 2;
#X connect 31 0 32 0;
#X connect 31 1 35 0;
#X connect 32 0 29 0;
#X connect 33 0 29 1;
#X connect 34 0 8 0;
#X connect 35 0 36 0;
#X connect 36 0 32 1;
#X connect 36 0 33 1;
#X connect 37 0 8 0;
#X connect 38 0 39 0;
#X connect 39 0 20 0;
#X connect 39 1 13 1;
#X connect 40 0 38 0;
#X connect 40 1 13 1;
#X connect 41 0 13 0;
