#N struct candle-widget float x float y float fill-color float border-color
float x1 float y1 float x2 float y2 float x3 float y3;
#N canvas 0 58 1366 685 10;
#X obj 440 132 pointer;
#N canvas 97 415 646 241 widget-template 0;
#X obj 41 45 struct candle-widget float x float y float fill-color
float border-color float x1 float y1 float x2 float y2 float x3 float
y3;
#X obj 42 110 filledpolygon fill-color 999 1 x1 y1 x2 y2 x3 y3, f
66;
#X restore 33 22 pd widget-template;
#X floatatom 183 306 5 0 0 0 - - -, f 5;
#X obj 183 333 set candle-widget fill-color;
#X obj 501 464 pointer;
#X obj 501 510 get candle-widget x y x1 y1 x2 y2 x3 y3;
#X obj 303 161 append candle-widget x y x1 y1 x2 y2 x3 y3, f 20;
#N canvas 100 110 350 339 random-list 0;
#X obj 111 71 inlet;
#X obj 134 163 until;
#X obj 134 205 list;
#X obj 174 205 t l;
#X obj 110 232 list;
#X obj 111 94 t b b b;
#X msg 134 139 8;
#X obj 110 254 outlet;
#X obj 134 185 random 400;
#X connect 0 0 5 0;
#X connect 1 0 8 0;
#X connect 2 0 3 0;
#X connect 2 0 4 1;
#X connect 3 0 2 1;
#X connect 4 0 7 0;
#X connect 5 0 4 0;
#X connect 5 1 6 0;
#X connect 5 2 2 1;
#X connect 6 0 1 0;
#X connect 8 0 2 0;
#X restore 303 132 pd random-list;
#X obj 183 279 random 999;
#X obj 376 306 pointer;
#X obj 303 237 t b p;
#X msg 303 34 25;
#X obj 303 56 until;
#X obj 303 78 t b b;
#X obj 501 532 t b f;
#X msg 549 436 next;
#X obj 183 219 tgl 15 0 empty empty empty 17 7 0 10 -262144 -1 -1 0
1;
#X obj 501 576 spigot 0;
#X obj 501 598 s loop;
#X obj 568 578 tgl 15 0 empty empty empty 17 7 0 10 -262144 -1 -1 0
1;
#X obj 549 374 r loop;
#N canvas 171 58 937 682 draw 1;
#X scalar candle-widget 347 186 841 0 39 328 358 111 244 234 \;;
#X scalar candle-widget 22 362 972 0 72 243 53 289 84 208 \;;
#X scalar candle-widget 82 298 560 0 259 390 165 255 102 63 \;;
#X scalar candle-widget 283 296 723 0 352 125 257 31 284 99 \;;
#X scalar candle-widget 45 150 4 0 219 343 55 28 28 255 \;;
#X scalar candle-widget 250 138 981 0 40 79 51 47 347 311 \;;
#X scalar candle-widget 246 31 233 0 110 306 98 276 68 84 \;;
#X scalar candle-widget 46 88 34 0 239 136 15 294 32 31 \;;
#X scalar candle-widget 124 56 769 0 349 220 187 69 94 247 \;;
#X scalar candle-widget 22 172 582 0 278 150 158 156 124 269 \;;
#X scalar candle-widget 142 163 349 0 376 254 41 301 204 69 \;;
#X scalar candle-widget 352 244 632 0 109 201 309 39 32 262 \;;
#X scalar candle-widget 186 118 824 0 256 399 3 94 319 299 \;;
#X scalar candle-widget 238 378 273 0 311 194 126 178 190 271 \;;
#X scalar candle-widget 369 308 701 0 281 72 244 393 186 308 \;;
#X scalar candle-widget 304 78 853 0 87 259 289 230 59 381 \;;
#X scalar candle-widget 230 148 815 0 166 117 356 369 177 97 \;;
#X scalar candle-widget 200 269 38 0 66 349 105 78 122 104 \;;
#X scalar candle-widget 331 78 657 0 251 399 159 216 89 288 \;;
#X scalar candle-widget 202 104 263 0 300 247 305 229 289 376 \;;
#X scalar candle-widget 258 362 829 0 304 212 96 355 344 131 \;;
#X scalar candle-widget 9 158 81 0 268 355 246 218 294 358 \;;
#X scalar candle-widget 226 288 147 0 313 273 36 232 390 298 \;;
#X scalar candle-widget 346 34 889 0 73 104 309 201 98 235 \;;
#X scalar candle-widget 271 170 882 0 95 323 73 317 297 89 \;;
#X scalar candle-widget 164 358 562 0 43 348 300 162 284 20 \;;
#X scalar candle-widget 256 149 53 0 91 331 126 105 364 226 \;;
#X scalar candle-widget 238 383 892 0 331 168 251 308 61 347 \;;
#X scalar candle-widget 268 188 53 0 167 89 339 117 312 59 \;;
#X scalar candle-widget 368 383 993 0 116 67 18 272 65 78 \;;
#X scalar candle-widget 221 76 79 0 12 14 280 299 87 360 \;;
#X scalar candle-widget 178 62 837 0 1 377 82 313 355 300 \;;
#X scalar candle-widget 252 228 411 0 344 347 144 20 263 129 \;;
#X scalar candle-widget 320 146 469 0 14 52 350 113 16 322 \;;
#X scalar candle-widget 323 82 831 0 102 357 349 76 35 189 \;;
#X scalar candle-widget 67 387 548 0 9 270 153 380 356 81 \;;
#X scalar candle-widget 222 103 803 0 52 336 339 288 26 388 \;;
#X scalar candle-widget 121 361 522 0 63 39 247 48 110 139 \;;
#X scalar candle-widget 362 180 158 0 386 1 183 300 284 1 \;;
#X scalar candle-widget 207 269 688 0 80 186 14 273 238 81 \;;
#X scalar candle-widget 180 27 404 0 318 94 175 384 279 124 \;;
#X scalar candle-widget 273 139 646 0 187 167 261 39 324 117 \;;
#X scalar candle-widget 139 383 201 0 89 383 33 234 108 83 \;;
#X scalar candle-widget 96 223 642 0 339 61 17 154 178 285 \;;
#X scalar candle-widget 126 213 447 0 166 59 102 171 95 226 \;;
#X scalar candle-widget 76 196 300 0 314 174 141 50 234 46 \;;
#X scalar candle-widget 255 305 532 0 39 141 150 341 385 325 \;;
#X scalar candle-widget 37 361 249 0 114 235 112 186 352 284 \;;
#X scalar candle-widget 62 74 212 0 223 270 172 314 151 381 \;;
#X scalar candle-widget 31 43 138 0 368 199 38 45 216 112 \;;
#X scalar candle-widget 110 358 635 0 260 314 385 286 390 215 \;;
#X scalar candle-widget 331 396 539 0 329 246 250 134 135 65 \;;
#X scalar candle-widget 387 223 7 0 315 365 34 276 324 277 \;;
#X scalar candle-widget 238 395 248 0 275 380 104 386 244 105 \;;
#X scalar candle-widget 305 157 390 0 378 340 188 130 199 41 \;;
#X scalar candle-widget 77 43 466 0 310 32 381 160 103 17 \;;
#X scalar candle-widget 303 75 154 0 267 382 141 318 88 4 \;;
#X scalar candle-widget 398 365 384 0 361 56 89 237 296 212 \;;
#X scalar candle-widget 242 115 558 0 20 58 211 337 287 91 \;;
#X scalar candle-widget 377 214 642 0 183 331 57 27 32 127 \;;
#X scalar candle-widget 210 241 976 0 304 359 142 306 119 49 \;;
#X scalar candle-widget 213 265 199 0 153 164 143 362 347 223 \;;
#X scalar candle-widget 120 244 266 0 11 105 303 171 330 253 \;;
#X scalar candle-widget 331 222 72 0 74 282 28 299 98 385 \;;
#X scalar candle-widget 110 136 776 0 254 336 89 102 293 101 \;;
#X scalar candle-widget 183 10 483 0 375 42 19 323 372 324 \;;
#X scalar candle-widget 141 158 492 0 376 320 317 95 5 16 \;;
#X scalar candle-widget 241 181 887 0 109 223 246 340 77 377 \;;
#X scalar candle-widget 2 373 825 0 341 349 32 369 87 248 \;;
#X scalar candle-widget 8 312 395 0 154 230 265 83 347 305 \;;
#X scalar candle-widget 106 270 545 0 341 141 102 171 186 69 \;;
#X scalar candle-widget 7 205 83 0 13 93 260 312 143 94 \;;
#X scalar candle-widget 289 364 345 0 392 37 22 171 175 178 \;;
#X scalar candle-widget 190 285 696 0 215 65 234 7 249 354 \;;
#X scalar candle-widget 214 194 556 0 333 206 309 65 150 298 \;;
#X scalar candle-widget 330 6 246 0 313 228 21 378 74 322 \;;
#X scalar candle-widget 170 324 494 0 232 239 109 172 33 379 \;;
#X scalar candle-widget 29 242 987 0 84 86 76 57 53 259 \;;
#X scalar candle-widget 268 343 956 0 377 354 390 237 372 193 \;;
#X scalar candle-widget 311 97 299 0 333 169 281 303 45 251 \;;
#X scalar candle-widget 46 65 351 0 86 193 346 233 338 140 \;;
#X scalar candle-widget 26 97 942 0 87 31 342 197 134 209 \;;
#X scalar candle-widget 67 330 967 0 99 24 195 353 128 43 \;;
#X scalar candle-widget 249 193 225 0 200 252 190 248 231 268 \;;
#X scalar candle-widget 318 201 896 0 182 338 381 219 165 349 \;;
#X scalar candle-widget 282 162 541 0 150 38 382 390 69 390 \;;
#X scalar candle-widget 213 168 80 0 325 252 374 75 295 134 \;;
#X scalar candle-widget 48 5 808 0 40 17 100 379 8 362 \;;
#X scalar candle-widget 188 145 5 0 344 310 267 393 190 295 \;;
#X scalar candle-widget 97 350 303 0 198 246 348 198 233 193 \;;
#X scalar candle-widget 106 272 542 0 279 78 379 267 147 356 \;;
#X scalar candle-widget 6 49 367 0 378 202 359 57 353 121 \;;
#X scalar candle-widget 55 111 419 0 398 149 54 218 288 65 \;;
#X scalar candle-widget 373 176 526 0 157 392 390 387 202 205 \;;
#X scalar candle-widget 347 253 841 0 389 140 60 191 160 197 \;;
#X scalar candle-widget 25 36 484 0 140 345 121 246 241 333 \;;
#X scalar candle-widget 320 311 743 0 170 294 192 357 336 148 \;;
#X scalar candle-widget 10 353 516 0 354 215 258 118 352 215 \;;
#X scalar candle-widget 337 125 191 0 280 276 68 311 11 344 \;;
#X scalar candle-widget 5 80 747 0 252 383 134 310 247 187 \;;
#X scalar candle-widget 185 159 421 0 286 381 333 274 209 233 \;;
#X scalar candle-widget 309 393 825 0 313 254 105 155 259 10 \;;
#X scalar candle-widget 276 302 15 0 378 325 255 291 175 287 \;;
#X scalar candle-widget 248 294 482 0 40 257 351 11 148 71 \;;
#X scalar candle-widget 50 268 723 0 172 50 127 232 183 6 \;;
#X scalar candle-widget 171 210 484 0 361 246 80 61 298 179 \;;
#X scalar candle-widget 367 397 426 0 308 124 69 193 328 314 \;;
#X scalar candle-widget 254 393 480 0 29 303 322 313 119 373 \;;
#X scalar candle-widget 315 52 732 0 53 139 25 94 133 358 \;;
#X scalar candle-widget 96 118 234 0 23 331 333 200 46 111 \;;
#X scalar candle-widget 8 23 720 0 96 312 164 81 145 312 \;;
#X scalar candle-widget 324 88 744 0 345 60 397 179 337 281 \;;
#X scalar candle-widget 182 123 325 0 155 286 78 124 336 176 \;;
#X scalar candle-widget 186 29 766 0 25 245 218 135 277 393 \;;
#X scalar candle-widget 201 393 853 0 169 328 388 19 103 171 \;;
#X scalar candle-widget 358 293 213 0 315 266 127 173 176 184 \;;
#X scalar candle-widget 52 296 158 0 304 130 337 185 268 347 \;;
#X scalar candle-widget 141 257 952 0 293 128 282 228 168 14 \;;
#X scalar candle-widget 347 321 929 0 151 9 193 68 277 178 \;;
#X scalar candle-widget 258 322 499 0 63 60 264 58 213 70 \;;
#X scalar candle-widget 325 383 651 0 326 108 52 140 204 162 \;;
#X scalar candle-widget 61 315 84 0 353 118 279 45 94 363 \;;
#X scalar candle-widget 247 220 680 0 69 394 231 294 343 222 \;;
#X scalar candle-widget 325 288 626 0 116 180 358 397 223 328 \;;
#X scalar candle-widget 201 197 974 0 46 259 74 252 19 107 \;;
#X scalar candle-widget 121 63 97 0 130 352 357 347 32 26 \;;
#X scalar candle-widget 174 49 957 0 349 121 350 358 377 191 \;;
#X scalar candle-widget 131 249 759 0 199 164 359 153 382 145 \;;
#X scalar candle-widget 156 298 29 0 91 221 54 385 390 272 \;;
#X scalar candle-widget 276 321 816 0 350 170 269 298 357 394 \;;
#X scalar candle-widget 183 330 209 0 215 228 4 325 55 373 \;;
#X scalar candle-widget 232 28 939 0 38 351 219 290 67 310 \;;
#X scalar candle-widget 443 208 432 0 286 33 43 1 393 344 \;;
#X scalar candle-widget 299 149 188 0 140 110 165 261 245 53 \;;
#X scalar candle-widget 148 221 969 0 95 154 241 258 251 257 \;;
#X scalar candle-widget 202 84 821 0 159 278 289 170 252 11 \;;
#X scalar candle-widget 336 85 505 0 57 133 91 165 302 11 \;;
#X scalar candle-widget 291 260 507 0 224 309 196 200 72 393 \;;
#X scalar candle-widget 269 137 341 0 13 137 113 219 243 130 \;;
#X scalar candle-widget 341 130 405 0 288 284 118 358 314 36 \;;
#X scalar candle-widget 236 142 252 0 29 159 250 340 395 163 \;;
#X scalar candle-widget 352 168 660 0 129 107 112 77 213 1 \;;
#X scalar candle-widget 349 90 478 0 396 15 271 273 106 282 \;;
#X scalar candle-widget 150 278 770 0 151 308 58 216 28 374 \;;
#X scalar candle-widget 144 194 351 0 29 149 170 388 147 87 \;;
#X scalar candle-widget 184 186 355 0 181 41 64 257 244 267 \;;
#X scalar candle-widget 186 94 74 0 69 27 165 82 315 200 \;;
#X scalar candle-widget 330 244 811 0 272 287 60 308 370 214 \;;
#X scalar candle-widget 461 53 130 0 282 142 301 174 233 271 \;;
#X scalar candle-widget 285 215 358 0 304 250 203 302 141 177 \;;
#X coords 0 682 1 681 85 60 0;
#X restore 34 48 pd draw;
#X msg 34 80 \; pd-draw clear \;;
#X msg 440 108 traverse pd-draw \, bang;
#X msg 501 410 traverse pd-draw \, next;
#X msg 376 277 traverse pd-draw \, vnext 1;
#X obj 501 554 del 1;
#X obj 183 243 metro 1;
#X connect 0 0 6 8;
#X connect 2 0 3 0;
#X connect 4 0 5 0;
#X connect 4 0 3 1;
#X connect 4 1 24 0;
#X connect 5 0 14 0;
#X connect 6 0 10 0;
#X connect 7 0 6 0;
#X connect 8 0 2 0;
#X connect 9 0 3 1;
#X connect 10 0 8 0;
#X connect 10 1 9 0;
#X connect 11 0 12 0;
#X connect 12 0 13 0;
#X connect 13 0 7 0;
#X connect 13 1 23 0;
#X connect 14 0 26 0;
#X connect 15 0 4 0;
#X connect 16 0 27 0;
#X connect 17 0 18 0;
#X connect 19 0 17 1;
#X connect 20 0 15 0;
#X connect 23 0 0 0;
#X connect 24 0 4 0;
#X connect 25 0 9 0;
#X connect 26 0 17 0;
#X connect 27 0 8 0;
