#N canvas 309 107 446 320 10;
#X obj 111 71 inlet;
#X obj 134 163 until;
#X obj 134 205 list;
#X obj 174 205 t l;
#X obj 110 232 list;
#X obj 111 94 t b b b;
#X obj 110 254 outlet;
#X obj 134 185 random 400;
#X obj 247 36 loadbang;
#X obj 134 137 f 8;
#X obj 247 104 max 8;
#X obj 247 58 t b b;
#X obj 294 104 max 400;
#X obj 247 82 f \$1;
#X obj 294 82 f \$2;
#X connect 0 0 5 0;
#X connect 1 0 7 0;
#X connect 2 0 3 0;
#X connect 2 0 4 1;
#X connect 3 0 2 1;
#X connect 4 0 6 0;
#X connect 5 0 4 0;
#X connect 5 1 9 0;
#X connect 5 2 2 1;
#X connect 7 0 2 0;
#X connect 8 0 11 0;
#X connect 9 0 1 0;
#X connect 10 0 9 1;
#X connect 11 0 13 0;
#X connect 11 1 14 0;
#X connect 12 0 7 1;
#X connect 13 0 10 0;
#X connect 14 0 12 0;
