#N struct triangle-widget float x float y float fill-color float border-color
float x1 float y1 float x2 float y2 float x3 float y3;
#N canvas 720 82 606 639 10;
#X obj 298 149 pointer;
#N canvas 97 420 646 241 widget-template 0;
#X obj 42 110 filledpolygon fill-color 999 1 x1 y1 x2 y2 x3 y3, f
66;
#X obj 41 45 struct triangle-widget float x float y float fill-color
float border-color float x1 float y1 float x2 float y2 float x3 float
y3;
#X restore 33 22 pd widget-template;
#X floatatom 41 323 5 0 0 0 - - -, f 5;
#X obj 272 444 pointer;
#N canvas 100 115 350 339 random-list 0;
#X obj 111 71 inlet;
#X obj 134 163 until;
#X obj 134 205 list;
#X obj 174 205 t l;
#X obj 110 232 list;
#X obj 111 94 t b b b;
#X msg 134 139 8;
#X obj 110 254 outlet;
#X obj 134 185 random 400;
#X connect 0 0 5 0;
#X connect 1 0 8 0;
#X connect 2 0 3 0;
#X connect 2 0 4 1;
#X connect 3 0 2 1;
#X connect 4 0 7 0;
#X connect 5 0 4 0;
#X connect 5 1 6 0;
#X connect 5 2 2 1;
#X connect 6 0 1 0;
#X connect 8 0 2 0;
#X restore 161 149 pd random-list;
#X obj 41 296 random 999;
#X obj 234 323 pointer;
#X obj 161 254 t b p;
#X msg 161 51 25;
#X obj 161 73 until;
#X obj 161 95 t b b;
#X obj 272 512 t b f;
#X msg 320 416 next;
#X obj 41 236 tgl 15 0 empty empty empty 17 7 0 10 -262144 -1 -1 1
1;
#X obj 272 556 spigot 0;
#X obj 272 578 s loop;
#X obj 339 558 tgl 15 0 empty empty empty 17 7 0 10 -262144 -1 -1 1
1;
#X obj 320 354 r loop;
#N canvas 27 139 937 682 draw 1;
#X scalar triangle-widget 370 31 245 0 149 113 66 13 318 131 \;;
#X scalar triangle-widget 113 39 691 0 109 181 220 225 169 274 \;;
#X scalar triangle-widget 201 331 431 0 154 219 282 165 35 228 \;;
#X scalar triangle-widget 202 394 597 0 200 320 326 142 364 131 \;
;
#X scalar triangle-widget 346 206 605 0 73 315 389 254 14 357 \;;
#X scalar triangle-widget 127 35 773 0 115 373 274 185 59 121 \;;
#X scalar triangle-widget 103 235 528 0 183 4 146 212 388 78 \;;
#X scalar triangle-widget 99 251 642 0 246 256 333 198 303 119 \;;
#X scalar triangle-widget 199 17 910 0 188 317 332 197 319 377 \;;
#X scalar triangle-widget 156 157 933 0 8 112 198 252 367 223 \;;
#X scalar triangle-widget 384 181 210 0 16 108 354 193 390 67 \;;
#X scalar triangle-widget 161 291 148 0 241 308 185 242 147 357 \;
;
#X scalar triangle-widget 232 378 476 0 221 57 243 7 210 182 \;;
#X scalar triangle-widget 202 219 875 0 11 237 41 288 166 269 \;;
#X scalar triangle-widget 344 84 337 0 379 269 256 73 15 384 \;;
#X scalar triangle-widget 191 129 291 0 209 315 132 337 371 332 \;
;
#X scalar triangle-widget 344 201 780 0 296 274 75 247 263 159 \;;
#X scalar triangle-widget 265 35 741 0 351 386 254 158 134 346 \;;
#X scalar triangle-widget 83 255 933 0 398 227 5 214 40 17 \;;
#X scalar triangle-widget 388 176 885 0 177 115 25 147 252 333 \;;
#X scalar triangle-widget 36 399 631 0 140 106 178 280 254 296 \;;
#X scalar triangle-widget 347 217 418 0 53 196 89 124 146 143 \;;
#X scalar triangle-widget 103 210 105 0 398 118 150 180 40 355 \;;
#X scalar triangle-widget 154 47 952 0 170 346 115 135 264 249 \;;
#X scalar triangle-widget 10 287 701 0 278 292 102 270 358 181 \;;
#X coords 0 682 1 681 85 60 0;
#X restore 34 48 pd draw;
#X msg 34 80 \; pd-draw clear \;;
#X msg 298 125 traverse pd-draw \, bang;
#X msg 272 390 traverse pd-draw \, next;
#X msg 234 294 traverse pd-draw \, vnext 1;
#X obj 272 534 del 1;
#X obj 161 178 append triangle-widget x y x1 y1 x2 y2 x3 y3, f 20
;
#X obj 272 490 get triangle-widget x y x1 y1 x2 y2 x3 y3;
#X obj 41 350 set triangle-widget fill-color;
#X msg 427 294 vnext 1;
#X obj 41 260 metro 2;
#X connect 0 0 24 8;
#X connect 2 0 26 0;
#X connect 3 0 25 0;
#X connect 3 0 26 1;
#X connect 3 1 21 0;
#X connect 4 0 24 0;
#X connect 5 0 2 0;
#X connect 6 0 26 1;
#X connect 6 1 22 0;
#X connect 7 0 5 0;
#X connect 7 1 6 0;
#X connect 8 0 9 0;
#X connect 9 0 10 0;
#X connect 10 0 4 0;
#X connect 10 1 20 0;
#X connect 11 0 23 0;
#X connect 12 0 3 0;
#X connect 13 0 28 0;
#X connect 14 0 15 0;
#X connect 16 0 14 1;
#X connect 17 0 12 0;
#X connect 20 0 0 0;
#X connect 21 0 3 0;
#X connect 22 0 6 0;
#X connect 23 0 14 0;
#X connect 24 0 7 0;
#X connect 25 0 11 0;
#X connect 27 0 6 0;
#X connect 28 0 5 0;
