#N struct candle-widget float x float y float fill-color float border-color
float x1 float y1 float x2 float y2 float x3 float y3;
#N canvas 475 58 919 669 10;
#X obj 439 114 pointer;
#N canvas 97 415 646 241 widget-template 1;
#X obj 41 45 struct candle-widget float x float y float fill-color
float border-color float x1 float y1 float x2 float y2 float x3 float
y3;
#X obj 42 110 filledpolygon fill-color 999 1 x1 y1 x2 y2 x3 y3, f
66;
#X restore 33 22 pd widget-template;
#X floatatom 45 417 5 0 0 0 - - -, f 5;
#X obj 45 444 set candle-widget fill-color;
#X obj 606 502 pointer;
#X obj 606 548 get candle-widget x y x1 y1 x2 y2 x3 y3;
#X obj 302 193 append candle-widget x y x1 y1 x2 y2 x3 y3, f 20;
#N canvas 100 105 450 300 random-list 0;
#X obj 111 71 inlet;
#X obj 133 174 until;
#X obj 133 216 list;
#X obj 173 216 t l;
#X obj 109 243 list;
#X obj 111 94 t b b b;
#X msg 133 150 8;
#X obj 109 265 outlet;
#X obj 133 196 random 400;
#X connect 0 0 5 0;
#X connect 1 0 8 0;
#X connect 2 0 3 0;
#X connect 2 0 4 1;
#X connect 3 0 2 1;
#X connect 4 0 7 0;
#X connect 5 0 4 0;
#X connect 5 1 6 0;
#X connect 5 2 2 1;
#X connect 6 0 1 0;
#X connect 8 0 2 0;
#X restore 302 164 pd random-list;
#X obj 45 390 random 999;
#X obj 241 373 pointer;
#X obj 302 241 t b p;
#X msg 303 34 25;
#X obj 303 56 until;
#X obj 303 85 t b b;
#X obj 606 570 t b f;
#X msg 654 474 next;
#X obj 59 241 tgl 15 0 empty empty empty 17 7 0 10 -262144 -1 -1 0
1;
#X obj 688 522 print;
#X obj 606 614 spigot 0;
#X obj 606 636 s loop;
#X obj 673 616 tgl 15 0 empty empty empty 17 7 0 10 -262144 -1 -1 0
1;
#X obj 709 475 r loop;
#N canvas 171 58 937 682 draw 1;
#X scalar candle-widget 121 63 912 0 130 352 357 347 32 26 \;;
#X scalar candle-widget 174 49 843 0 349 121 350 358 377 191 \;;
#X scalar candle-widget 131 249 171 0 199 164 359 153 382 145 \;;
#X scalar candle-widget 156 298 899 0 91 221 54 385 390 272 \;;
#X scalar candle-widget 276 321 329 0 350 170 269 298 357 394 \;;
#X scalar candle-widget 183 330 974 0 215 228 4 325 55 373 \;;
#X scalar candle-widget 232 28 118 0 38 351 219 290 67 310 \;;
#X scalar candle-widget 443 208 843 0 286 33 43 1 393 344 \;;
#X scalar candle-widget 299 149 488 0 140 110 165 261 245 53 \;;
#X scalar candle-widget 148 221 941 0 95 154 241 258 251 257 \;;
#X scalar candle-widget 202 84 850 0 159 278 289 170 252 11 \;;
#X scalar candle-widget 336 85 303 0 57 133 91 165 302 11 \;;
#X scalar candle-widget 291 260 145 0 224 309 196 200 72 393 \;;
#X scalar candle-widget 269 137 650 0 13 137 113 219 243 130 \;;
#X scalar candle-widget 341 130 814 0 288 284 118 358 314 36 \;;
#X scalar candle-widget 236 142 119 0 29 159 250 340 395 163 \;;
#X scalar candle-widget 352 168 161 0 129 107 112 77 213 1 \;;
#X scalar candle-widget 349 90 122 0 396 15 271 273 106 282 \;;
#X scalar candle-widget 150 278 595 0 151 308 58 216 28 374 \;;
#X scalar candle-widget 144 194 863 0 29 149 170 388 147 87 \;;
#X scalar candle-widget 184 186 281 0 181 41 64 257 244 267 \;;
#X scalar candle-widget 186 94 978 0 69 27 165 82 315 200 \;;
#X scalar candle-widget 330 244 658 0 272 287 60 308 370 214 \;;
#X scalar candle-widget 461 53 827 0 282 142 301 174 233 271 \;;
#X scalar candle-widget 285 215 371 0 304 250 203 302 141 177 \;;
#X coords 0 682 1 681 85 60 0;
#X restore 34 48 pd draw;
#X msg 378 37 \; pd-draw clear \;;
#X msg 439 90 traverse pd-draw \, bang;
#X msg 606 448 traverse pd-draw \, next;
#X msg 243 339 traverse pd-draw \, vnext 1;
#X obj 606 592 del 1;
#X obj 61 268 metro 1;
#X connect 0 0 6 8;
#X connect 2 0 3 0;
#X connect 4 0 5 0;
#X connect 4 0 3 1;
#X connect 4 1 25 0;
#X connect 5 0 14 0;
#X connect 6 0 10 0;
#X connect 7 0 6 0;
#X connect 8 0 2 0;
#X connect 9 0 3 1;
#X connect 10 0 8 0;
#X connect 10 1 9 0;
#X connect 11 0 12 0;
#X connect 12 0 13 0;
#X connect 13 0 7 0;
#X connect 13 1 24 0;
#X connect 14 0 27 0;
#X connect 15 0 4 0;
#X connect 16 0 28 0;
#X connect 18 0 19 0;
#X connect 20 0 18 1;
#X connect 21 0 15 0;
#X connect 24 0 0 0;
#X connect 25 0 4 0;
#X connect 26 0 9 0;
#X connect 27 0 18 0;
#X connect 28 0 8 0;
