#N canvas 813 179 450 300 10;
#X msg 68 66 listen 3000;
#X msg 318 88 \; pd dsp 1;
#X obj 66 121 print;
#X msg 160 52 listen 0;
#X obj 68 37 loadbang;
#X obj 68 88 netreceive -u;
#X connect 0 0 5 0;
#X connect 3 0 5 0;
#X connect 4 0 0 0;
#X connect 5 0 2 0;
