#N struct candle-arr float x float y array candles candle;
#N struct candle float open float high float low float close float
sentiment;
#N canvas 0 58 1366 685 10;
#N canvas 123 140 620 184 candle 0;
#X obj 39 43 struct candle float open float high float low float close
float sentiment, f 74;
#X obj 39 124 drawpolygon sentiment 1 0 high(1:0)(0:400) 0 low(1:0)(0:400)
;
#X obj 39 77 filledpolygon 0 sentiment 1 -4 close(1:0)(0:400) 4 close(1:0)(0:400)
4 open(1:0)(0:400) -4 open(1:0)(0:400), f 66;
#X restore 23 34 pd candle;
#N canvas 223 174 450 184 candle-arr 0;
#X obj 22 38 struct candle-arr float x float y array candles candle
;
#X obj 22 67 plot candles 0 0 0 0 12;
#X restore 23 59 pd candle-arr;
#N canvas 12 58 1351 682 plot 0;
#X scalar candle-arr 0 0 \; 0.282051 0.34188 0.25812 0.335043 70 \;
0.324786 0.338462 0.247863 0.247863 700 \; 0.234188 0.329915 0.234188
0.271795 70 \; 0.280342 0.329915 0.261538 0.329915 70 \; 0.329915 0.329915
0.242735 0.302564 700 \; 0.295727 0.437607 0.295727 0.437607 70 \;
0.435897 0.475214 0.413675 0.439316 70 \; 0.42906 0.434188 0.37094
0.425641 700 \; 0.435897 0.480342 0.394872 0.478632 70 \; 0.470085
0.579487 0.461538 0.57094 70 \; 0.569231 0.57265 0.516239 0.54359 700
\; 0.536752 0.550427 0.441026 0.497436 700 \; 0.505983 0.54188 0.492308
0.533333 70 \; 0.523077 0.57094 0.500855 0.564103 70 \; 0.574359 0.724786
0.574359 0.716239 70 \; 0.705983 0.721368 0.606838 0.606838 700 \;
0.618803 0.62735 0.582906 0.62735 70 \; 0.641026 0.680342 0.641026
0.65812 70 \; 0.670085 0.700855 0.65812 0.683761 70 \; 0.695727 0.74188
0.695727 0.731624 70 \; 0.740171 0.788034 0.726496 0.788034 70 \; 0.781197
0.788034 0.719658 0.779487 700 \; 0.77094 0.782906 0.712821 0.712821
700 \; 0.700855 0.700855 0.588034 0.588034 700 \; 0.598291 0.613675
0.531624 0.567521 700 \; 0.557265 0.596581 0.528205 0.569231 70 \;
0.564103 0.620513 0.524786 0.611966 70 \; 0.603419 0.617094 0.562393
0.57094 700 \; 0.57265 0.673504 0.57265 0.635897 70 \; 0.647863 0.647863
0.577778 0.577778 700 \; 0.589744 0.651282 0.589744 0.651282 70 \;
0.651282 0.71453 0.649573 0.688889 70 \; 0.695727 0.724786 0.625641
0.642735 700 \; 0.632479 0.649573 0.620513 0.635897 70 \; 0.635897
0.712821 0.635897 0.651282 70 \; 0.664957 0.704274 0.646154 0.678632
70 \; 0.673504 0.712821 0.647863 0.647863 700 \; 0.647863 0.651282
0.596581 0.603419 700 \; 0.611966 0.623932 0.547009 0.567521 700 \;
0.555556 0.555556 0.468376 0.487179 700 \; 0.487179 0.500855 0.45641
0.468376 700 \; 0.478632 0.505983 0.435897 0.435897 700 \; 0.437607
0.463248 0.393162 0.393162 700 \; 0.401709 0.473504 0.388034 0.461538
70 \; 0.461538 0.490598 0.413675 0.490598 70 \; 0.483761 0.483761 0.423932
0.466667 700 \; 0.45641 0.509402 0.442735 0.461538 70 \; 0.470085 0.545299
0.466667 0.507692 70 \; 0.511111 0.553846 0.511111 0.54359 70 \; 0.533333
0.533333 0.45641 0.466667 700 \; 0.45812 0.509402 0.451282 0.509402
70 \; 0.507692 0.507692 0.471795 0.482051 700 \; 0.494017 0.579487
0.476923 0.579487 70 \; 0.588034 0.646154 0.57265 0.625641 70 \; 0.613675
0.639316 0.582906 0.618803 70 \; 0.632479 0.71453 0.632479 0.707692
70 \; 0.697436 0.711111 0.601709 0.642735 700 \; 0.654701 0.666667
0.598291 0.610256 700 \; 0.605128 0.615385 0.569231 0.579487 700 \;
0.589744 0.637607 0.589744 0.637607 70 \; 0.647863 0.647863 0.610256
0.620513 700 \; 0.620513 0.651282 0.577778 0.577778 700 \; 0.589744
0.654701 0.589744 0.630769 70 \; 0.62906 0.65812 0.613675 0.620513
700 \; 0.622222 0.647863 0.622222 0.647863 70 \; 0.635897 0.642735
0.57265 0.57265 700 \; 0.579487 0.649573 0.569231 0.649573 70 \; 0.659829
0.690598 0.62906 0.68718 70 \; 0.695727 0.723077 0.671795 0.711111
70 \; 0.700855 0.709402 0.641026 0.641026 700 \; 0.647863 0.697436
0.589744 0.690598 70 \; 0.683761 0.690598 0.642735 0.68718 70 \; 0.680342
0.68547 0.670085 0.680342 700 \; 0.678632 0.680342 0.617094 0.675214
700 \; 0.676923 0.721368 0.675214 0.712821 70 \; 0.721368 0.779487
0.721368 0.750427 70 \; 0.764103 0.774359 0.709402 0.724786 700 \;
0.711111 0.711111 0.651282 0.652991 700 \; 0.644444 0.644444 0.569231
0.569231 700 \; 0.560684 0.560684 0.495726 0.519658 700 \; 0.512821
0.54359 0.463248 0.507692 700 \; 0.499145 0.517949 0.459829 0.517949
70 \; 0.505983 0.519658 0.442735 0.519658 70 \; 0.519658 0.582906 0.507692
0.582906 70 \; 0.576068 0.577778 0.552137 0.576068 700 \; 0.564103
0.617094 0.552137 0.617094 70 \; 0.603419 0.615385 0.601709 0.613675
70 \; 0.615385 0.716239 0.615385 0.65641 70 \; 0.65641 0.680342 0.620513
0.654701 700 \; 0.652991 0.654701 0.615385 0.615385 700 \; 0.608547
0.613675 0.540171 0.576068 700 \; 0.564103 0.620513 0.547009 0.620513
70 \; 0.618803 0.618803 0.54359 0.589744 700 \; 0.591453 0.646154 0.574359
0.646154 70 \; 0.654701 0.690598 0.646154 0.65812 70 \; 0.670085 0.68718
0.652991 0.678632 70 \; 0.668376 0.723077 0.668376 0.723077 70 \; 0.733333
0.750427 0.707692 0.717949 700 \; 0.726496 0.750427 0.709402 0.740171
70 \; 0.733333 0.733333 0.682051 0.709402 700 \; 0.719658 0.719658
0.651282 0.651282 700 \; 0.642735 0.673504 0.625641 0.651282 70 \;
0.663248 0.697436 0.663248 0.688889 70 \; 0.68718 0.71453 0.663248
0.71453 70 \; 0.723077 0.863248 0.723077 0.852991 70 \; 0.863248 0.883761
0.82735 0.859829 700 \; 0.851282 0.895727 0.825641 0.887179 70 \; 0.895727
0.967521 0.895727 0.967521 70 \; 0.976068 1 0.926496 0.960684 700 \;
0.960684 0.991453 0.94188 0.960684 700 \; 0.953846 0.958974 0.924786
0.950427 700 \; 0.936752 0.964103 0.926496 0.964103 70 \; 0.962393
0.989744 0.912821 0.952137 700 \; 0.94359 0.948718 0.769231 0.781197
700 \; 0.789744 0.806838 0.745299 0.757265 700 \; 0.758974 0.769231
0.712821 0.74359 700 \; 0.740171 0.740171 0.688889 0.688889 700 \;
0.68718 0.765812 0.68718 0.717949 70 \; 0.728205 0.769231 0.705983
0.717949 700 \; 0.704274 0.711111 0.680342 0.683761 700 \; 0.671795
0.694017 0.671795 0.68547 70 \; 0.673504 0.68547 0.644444 0.651282
700 \; 0.644444 0.690598 0.644444 0.680342 70 \; 0.682051 0.745299
0.637607 0.642735 700 \; 0.632479 0.663248 0.593162 0.647863 70 \;
0.646154 0.671795 0.613675 0.646154 700 \; 0.659829 0.675214 0.605128
0.615385 700 \; 0.622222 0.634188 0.533333 0.533333 700 \; \;;
#X coords 0 0 1600 400 800 400 1 0 0;
#X restore 516 80 pd plot;
#X msg 127 306 \; pd-plot clear \;;
#X msg 225 347 traverse pd-plot \, bang;
#X obj 225 369 pointer;
#X obj 81 396 append candle-arr x y;
#X msg 81 373 0 0;
#X msg 80 445 128;
#X obj 80 467 setsize candle-arr candles;
#X msg 203 66 listen 3000;
#X obj 203 88 netreceive -u;
#X obj 203 139 s reset;
#X msg 260 45 listen 0;
#X obj 203 114 route reset candle;
#X obj 264 139 s candle;
#X obj 44 608 set candle open high low close sentiment;
#X obj 197 549 + 1;
#X obj 197 571 mod 128;
#X obj 44 527 r candle;
#X obj 44 549 t a b b;
#X obj 321 581 element candle-arr candles;
#X obj 95 255 loadbang;
#X obj 81 279 t b b b;
#X obj 81 223 bng 15 250 50 0 empty empty empty 17 7 0 10 -262144 -1
-1;
#X obj 81 421 t b p p;
#X obj 604 606 get candle high;
#X obj 783 555 pointer;
#X floatatom 604 628 5 0 0 0 - - -, f 5;
#X floatatom 604 556 5 0 0 0 - - -, f 5;
#X msg 783 533 traverse pd-plot \, next;
#X obj 155 551 f 0;
#X obj 184 497 r reset;
#X msg 184 525 0;
#X obj 604 579 element candle-arr candles;
#X connect 4 0 5 0;
#X connect 5 0 6 2;
#X connect 6 0 25 0;
#X connect 7 0 6 0;
#X connect 8 0 9 0;
#X connect 10 0 11 0;
#X connect 11 0 14 0;
#X connect 13 0 11 0;
#X connect 14 0 12 0;
#X connect 14 1 15 0;
#X connect 17 0 18 0;
#X connect 18 0 31 1;
#X connect 19 0 20 0;
#X connect 20 0 16 0;
#X connect 20 2 31 0;
#X connect 21 0 16 5;
#X connect 22 0 23 0;
#X connect 23 0 7 0;
#X connect 23 1 4 0;
#X connect 23 2 3 0;
#X connect 24 0 23 0;
#X connect 25 0 8 0;
#X connect 25 1 21 1;
#X connect 25 2 9 1;
#X connect 26 0 28 0;
#X connect 27 0 34 1;
#X connect 29 0 34 0;
#X connect 30 0 27 0;
#X connect 31 0 17 0;
#X connect 31 0 21 0;
#X connect 32 0 33 0;
#X connect 33 0 31 1;
#X connect 34 0 26 0;
