#N struct candle-arr float x float y array candles candle;
#N struct candle float open float high float low float close float
sentiment;
#N canvas 42 58 1351 685 10;
#N canvas 123 150 620 184 candle 0;
#X obj 39 43 struct candle float open float high float low float close
float sentiment, f 74;
#X obj 39 124 drawpolygon sentiment 1 0 high(1:0)(0:400) 0 low(1:0)(0:400)
;
#X obj 39 77 filledpolygon 0 sentiment 1 -4 close(1:0)(0:400) 4 close(1:0)(0:400)
4 open(1:0)(0:400) -4 open(1:0)(0:400), f 66;
#X restore 23 34 pd candle;
#N canvas 223 174 450 184 candle-arr 0;
#X obj 22 38 struct candle-arr float x float y array candles candle
;
#X obj 22 67 plot candles 0 0 0 0 12;
#X restore 23 59 pd candle-arr;
#N canvas 12 58 1351 682 plot 0;
#X scalar candle-arr 0 0 \; 0.0297214 0.0631579 0 0.0520124 70 \; 0.0489164
0.0978328 0.0352941 0.0978328 70 \; 0.100929 0.113932 0.0724458 0.113932
70 \; 0.109598 0.139938 0.0910217 0.0910217 700 \; 0.0904025 0.113313
0.0650155 0.0965944 70 \; 0.100929 0.157895 0.100929 0.139319 70 \;
0.139319 0.147368 0.128173 0.136842 700 \; 0.131889 0.147368 0.128173
0.141796 70 \; 0.144272 0.157276 0.128173 0.131889 700 \; 0.13065 0.144272
0.122601 0.143034 70 \; 0.14613 0.160372 0.1387 0.142415 700 \; 0.139319
0.201238 0.13808 0.19257 70 \; 0.196285 0.212384 0.173994 0.186378
700 \; 0.182663 0.206192 0.170279 0.206192 70 \; 0.209288 0.217957
0.182663 0.182663 700 \; 0.185759 0.21548 0.170898 0.195046 70 \; 0.193808
0.209907 0.165325 0.173994 700 \; 0.170898 0.181424 0.149226 0.152941
700 \; 0.157895 0.183282 0.150464 0.183282 70 \; 0.180186 0.193808
0.162229 0.162229 700 \; 0.165944 0.180805 0.146749 0.163467 700 \;
0.159752 0.214241 0.156656 0.185139 70 \; 0.189474 0.247678 0.189474
0.221672 70 \; 0.222291 0.242105 0.217957 0.227864 70 \; 0.224149 0.23096
0.187616 0.23096 70 \; 0.228483 0.228483 0.158514 0.175232 700 \; 0.174613
0.210526 0.14613 0.14613 700 \; 0.149845 0.186378 0.115789 0.136842
700 \; 0.134985 0.157895 0.120124 0.15356 70 \; 0.15418 0.198142 0.15356
0.198142 70 \; 0.195666 0.20743 0.171517 0.171517 700 \; 0.167183 0.196285
0.157276 0.196285 70 \; 0.200619 0.211765 0.133746 0.173375 700 \;
0.178328 0.198762 0.170898 0.198762 70 \; 0.202477 0.240248 0.196904
0.233437 70 \; 0.228483 0.237152 0.210526 0.231579 70 \; 0.227864 0.234675
0.208669 0.221053 700 \; 0.216718 0.216718 0.158514 0.170898 700 \;
0.174613 0.186378 0.16904 0.173375 700 \; 0.172136 0.2 0.149226 0.149226
700 \; 0.144892 0.185139 0.144892 0.167802 70 \; 0.171517 0.186997
0.136223 0.173375 70 \; 0.177709 0.206811 0.17709 0.198142 70 \; 0.194427
0.218576 0.194427 0.218576 70 \; 0.222291 0.247678 0.217337 0.221053
700 \; 0.216718 0.278638 0.201238 0.278638 70 \; 0.275542 0.295975
0.260681 0.295975 70 \; 0.298452 0.351703 0.298452 0.3387 70 \; 0.341796
0.348607 0.313932 0.347368 70 \; 0.344272 0.344272 0.294118 0.308978
700 \; 0.304025 0.308359 0.286068 0.304025 700 \; 0.304644 0.305263
0.271827 0.281115 700 \; 0.284211 0.319505 0.284211 0.312694 70 \;
0.31517 0.344892 0.313313 0.339938 70 \; 0.343034 0.350464 0.333746
0.339319 700 \; 0.341796 0.372136 0.310836 0.368421 70 \; 0.372136
0.372136 0.336842 0.357276 700 \; 0.360991 0.360991 0.31517 0.3387
700 \; 0.335604 0.337461 0.308978 0.323839 700 \; 0.321981 0.32322
0.29226 0.295975 700 \; 0.291022 0.319505 0.286068 0.310836 70 \; 0.306502
0.333127 0.295975 0.309598 70 \; 0.313932 0.333127 0.281734 0.320124
70 \; 0.324458 0.347368 0.324458 0.326316 70 \; 0.328793 0.354799 0.326316
0.354799 70 \; 0.357895 0.363467 0.34613 0.34613 700 \; 0.349845 0.365325
0.336842 0.341176 700 \; 0.345511 0.360991 0.33808 0.347368 70 \; 0.344272
0.364087 0.33065 0.364087 70 \; 0.367802 0.367802 0.346749 0.352322
700 \; 0.349226 0.352941 0.30031 0.300929 700 \; 0.304644 0.321981
0.301548 0.310836 70 \; 0.313932 0.344892 0.304025 0.33065 70 \; 0.333127
0.341796 0.298452 0.306502 700 \; 0.307121 0.336223 0.287926 0.287926
700 \; 0.290402 0.335604 0.285449 0.30774 70 \; 0.30774 0.318885 0.256966
0.272446 700 \; 0.276161 0.336842 0.276161 0.328793 70 \; 0.332508
0.347988 0.290402 0.29969 700 \; 0.295975 0.327554 0.295356 0.302167
70 \; 0.299071 0.326316 0.295975 0.32322 70 \; 0.326935 0.356037 0.322601
0.35418 70 \; 0.357895 0.364706 0.33808 0.35418 700 \; 0.349226 0.367183
0.34613 0.351084 70 \; 0.346749 0.356037 0.33065 0.336223 700 \; 0.340557
0.375851 0.313313 0.355418 70 \; 0.350464 0.367802 0.344892 0.354799
70 \; 0.351084 0.356656 0.317028 0.329412 700 \; 0.331889 0.371517
0.318266 0.371517 70 \; 0.367802 0.386378 0.351084 0.37709 70 \; 0.377709
0.385759 0.344892 0.362229 700 \; 0.358514 0.370898 0.347368 0.362229
70 \; 0.357895 0.368421 0.344272 0.36161 70 \; 0.358514 0.518266 0.357276
0.48483 70 \; 0.480495 0.503406 0.444582 0.496594 70 \; 0.49969 0.586378
0.488545 0.54613 70 \; 0.547988 0.63096 0.547988 0.585139 70 \; 0.588854
0.635294 0.567802 0.629721 70 \; 0.632198 0.637152 0.589474 0.598762
700 \; 0.602477 0.656966 0.596285 0.621053 70 \; 0.617957 0.622291
0.487926 0.566563 700 \; 0.570279 0.656966 0.557276 0.645201 70 \;
0.642105 0.69226 0.631579 0.67678 70 \; 0.681115 0.721362 0.678019
0.697833 70 \; 0.694118 0.704025 0.66935 0.677399 700 \; 0.681734 0.693498
0.637771 0.681115 700 \; 0.678019 0.689783 0.641486 0.665635 700 \;
0.668731 0.742415 0.665015 0.72322 70 \; 0.718885 0.733127 0.698452
0.704025 700 \; 0.707121 0.742415 0.707121 0.742415 70 \; 0.737461
0.751703 0.72322 0.745511 70 \; 0.740557 0.752941 0.723839 0.750464
70 \; 0.746749 0.751084 0.727554 0.735604 700 \; 0.733127 0.826625
0.728793 0.803715 70 \; 0.8 0.827245 0.765325 0.780805 700 \; 0.776471
0.791331 0.727554 0.778328 70 \; 0.782663 0.803096 0.75356 0.766563
700 \; 0.762848 0.81548 0.762848 0.798762 70 \; 0.802477 0.806192 0.745511
0.780805 700 \; 0.785758 0.859443 0.785758 0.825387 70 \; 0.828483
0.8613 0.801238 0.804954 700 \; 0.8 0.818576 0.757895 0.79195 700 \;
0.796904 0.837152 0.769659 0.769659 700 \; 0.772755 0.779567 0.749845
0.75356 700 \; 0.751703 0.76904 0.737461 0.743034 700 \; 0.747368 0.765944
0.731889 0.734365 700 \; 0.73065 0.820433 0.73065 0.806192 70 \; 0.809288
0.809288 0.754799 0.759752 700 \; \;;
#X coords 0 0 1600 400 800 400 1 0 0;
#X restore 516 80 pd plot;
#X msg 127 306 \; pd-plot clear \;;
#X obj 225 369 pointer;
#X obj 81 396 append candle-arr x y;
#X msg 81 373 0 0;
#X msg 80 445 128;
#X obj 80 467 setsize candle-arr candles;
#X msg 203 66 listen 3000;
#X obj 203 88 netreceive -u;
#X msg 260 45 listen 0;
#X obj 203 140 s candle;
#X obj 44 608 set candle open high low close sentiment;
#X obj 197 549 + 1;
#X obj 197 571 mod 128;
#X obj 44 527 r candle;
#X obj 44 549 t a b b;
#X obj 321 581 element candle-arr candles;
#X obj 95 255 loadbang;
#X obj 81 279 t b b b;
#X obj 81 223 bng 15 250 50 0 empty empty empty 17 7 0 10 -262144 -1
-1;
#X obj 81 421 t b p p;
#X obj 604 606 get candle high;
#X obj 783 555 pointer;
#X floatatom 604 628 5 0 0 0 - - -, f 5;
#X floatatom 604 556 5 0 0 0 - - -, f 5;
#X msg 783 533 traverse pd-plot \, next;
#X obj 155 551 f 0;
#X msg 184 525 0;
#X obj 604 579 element candle-arr candles;
#X msg 227 347 traverse pd-plot \, bang;
#X obj 203 114 route candle;
#X connect 4 0 5 2;
#X connect 5 0 22 0;
#X connect 6 0 5 0;
#X connect 7 0 8 0;
#X connect 9 0 10 0;
#X connect 10 0 32 0;
#X connect 11 0 10 0;
#X connect 14 0 15 0;
#X connect 15 0 28 1;
#X connect 16 0 17 0;
#X connect 17 0 13 0;
#X connect 17 2 28 0;
#X connect 18 0 13 5;
#X connect 19 0 20 0;
#X connect 20 0 6 0;
#X connect 20 1 31 0;
#X connect 20 2 3 0;
#X connect 21 0 20 0;
#X connect 22 0 7 0;
#X connect 22 1 18 1;
#X connect 22 2 8 1;
#X connect 23 0 25 0;
#X connect 24 0 30 1;
#X connect 26 0 30 0;
#X connect 27 0 24 0;
#X connect 28 0 14 0;
#X connect 28 0 18 0;
#X connect 29 0 28 1;
#X connect 30 0 23 0;
#X connect 31 0 4 0;
#X connect 32 0 12 0;
