#N struct candle-arr float x float y array candles candle;
#N struct candle float open float high float low float close float
sentiment;
#N canvas 0 58 1366 685 10;
#N canvas 123 140 620 184 candle 0;
#X obj 39 43 struct candle float open float high float low float close
float sentiment, f 74;
#X obj 39 124 drawpolygon sentiment 1 0 high(1:0)(0:400) 0 low(1:0)(0:400)
;
#X obj 39 77 filledpolygon 0 sentiment 1 -4 close(1:0)(0:400) 4 close(1:0)(0:400)
4 open(1:0)(0:400) -4 open(1:0)(0:400), f 66;
#X restore 23 34 pd candle;
#N canvas 223 174 450 184 candle-arr 0;
#X obj 22 38 struct candle-arr float x float y array candles candle
;
#X obj 22 67 plot candles 0 0 0 0 12;
#X restore 23 59 pd candle-arr;
#N canvas 12 58 1351 682 plot 0;
#X scalar candle-arr 0 0 \; 0.303841 0.303841 0.303841 0.303841 700
\; 0.309328 0.314129 0.29904 0.312757 70 \; 0.316187 0.325789 0.313443
0.322359 70 \; 0.327161 0.34225 0.327161 0.338134 70 \; 0.33882 0.344307
0.337449 0.341564 70 \; 0.344307 0.368999 0.344307 0.368999 70 \; 0.364198
0.365569 0.343621 0.365569 70 \; 0.368999 0.368999 0.364198 0.364198
700 \; 0.359396 0.360082 0.351166 0.355281 700 \; 0.352538 0.352538
0.340878 0.340878 700 \; 0.336763 0.347051 0.336763 0.338134 70 \;
0.332647 0.362826 0.332647 0.355967 70 \; 0.351166 0.380658 0.344993
0.376543 70 \; 0.379973 0.425926 0.379973 0.425926 70 \; 0.430041 0.475309
0.430041 0.463649 70 \; 0.464335 0.484225 0.451989 0.473937 70 \; 0.470508
0.470508 0.447188 0.447874 700 \; 0.444444 0.447874 0.433471 0.446502
70 \; 0.442387 0.442387 0.41701 0.421125 700 \; 0.418381 0.418381 0.402606
0.412894 700 \; 0.417695 0.417695 0.402606 0.402606 700 \; 0.40535
0.432785 0.40535 0.420439 70 \; 0.416324 0.430041 0.41358 0.419753
70 \; 0.423868 0.427298 0.418381 0.418381 700 \; 0.421125 0.425926
0.40535 0.420439 700 \; 0.42524 0.42524 0.419067 0.419067 700 \; 0.414266
0.420439 0.408779 0.420439 70 \; 0.41701 0.429355 0.41701 0.420439
70 \; 0.424554 0.429355 0.424554 0.429355 70 \; 0.433471 0.434842 0.424554
0.434156 70 \; 0.438272 0.44856 0.438272 0.44856 70 \; 0.445816 0.44856
0.445816 0.44856 70 \; 0.451303 0.461591 0.451303 0.454733 70 \; 0.450617
0.477366 0.450617 0.477366 70 \; 0.480796 0.48834 0.479424 0.486968
70 \; 0.482167 0.49177 0.469822 0.49177 70 \; 0.495199 0.495199 0.482853
0.489712 700 \; 0.493827 0.504115 0.489712 0.493141 700 \; 0.48834
0.498628 0.48834 0.49177 70 \; 0.497942 0.521948 0.497942 0.510974
70 \; 0.51166 0.514403 0.500686 0.503429 700 \; 0.499314 0.499314 0.478738
0.478738 700 \; 0.475995 0.478738 0.475995 0.478738 70 \; 0.474623
0.487654 0.474623 0.478738 70 \; 0.484225 0.489026 0.478738 0.478738
700 \; 0.484911 0.484911 0.484911 0.484911 700 \; 0.491084 0.491084
0.491084 0.491084 700 \; 0.495885 0.5 0.484911 0.484911 700 \; 0.480796
0.480796 0.441015 0.45679 700 \; 0.460219 0.475995 0.454733 0.471193
70 \; 0.472565 0.475995 0.472565 0.475995 70 \; 0.475995 0.514403 0.474623
0.510288 70 \; 0.513032 0.513032 0.504115 0.504115 700 \; 0.500686
0.500686 0.489712 0.495885 700 \; 0.491084 0.491084 0.491084 0.491084
700 \; 0.485597 0.486968 0.475309 0.486968 70 \; 0.482853 0.483539
0.482853 0.483539 70 \; 0.486968 0.49177 0.486968 0.49177 70 \; 0.491084
0.491084 0.47668 0.486968 700 \; 0.484225 0.484225 0.474623 0.474623
700 \; 0.478052 0.478052 0.478052 0.478052 700 \; 0.480796 0.489026
0.479424 0.479424 700 \; 0.475995 0.48011 0.475995 0.47668 70 \; 0.471879
0.473937 0.471879 0.473937 70 \; 0.471193 0.471193 0.458848 0.458848
700 \; 0.455418 0.455418 0.450617 0.450617 700 \; 0.447188 0.447188
0.423868 0.423868 700 \; 0.419067 0.44513 0.419067 0.440329 70 \; 0.436214
0.458162 0.436214 0.458162 70 \; 0.455418 0.455418 0.444444 0.444444
700 \; 0.447188 0.457476 0.447188 0.457476 70 \; 0.460905 0.460905
0.460905 0.460905 700 \; 0.456104 0.461591 0.456104 0.461591 70 \;
0.465706 0.48011 0.465706 0.48011 70 \; 0.479424 0.479424 0.47668 0.47668
700 \; 0.479424 0.479424 0.469822 0.471193 700 \; 0.473937 0.473937
0.473937 0.473937 700 \; 0.478738 0.478738 0.478052 0.478052 700 \;
0.477366 0.478738 0.474623 0.478738 70 \; 0.478052 0.478052 0.461591
0.475995 700 \; 0.471193 0.474623 0.461591 0.474623 70 \; 0.477366
0.477366 0.474623 0.474623 700 \; 0.471193 0.471193 0.460219 0.460219
700 \; 0.460905 0.463649 0.460219 0.460219 700 \; 0.464335 0.48011
0.464335 0.48011 70 \; 0.486283 0.49177 0.486283 0.491084 70 \; 0.495199
0.504801 0.495199 0.504801 70 \; 0.509602 0.528807 0.509602 0.528121
70 \; 0.524005 0.524691 0.502058 0.507545 700 \; 0.503429 0.541838
0.503429 0.539095 70 \; 0.54321 0.593278 0.540466 0.561043 70 \; 0.558299
0.559671 0.543896 0.559671 70 \; 0.558985 0.558985 0.55487 0.55487
700 \; 0.552126 0.559671 0.545267 0.558299 70 \; 0.561043 0.580247
0.561043 0.5631 70 \; 0.567215 0.577503 0.562414 0.562414 700 \; 0.561728
0.561728 0.53155 0.534294 700 \; 0.530864 0.534979 0.525377 0.525377
700 \; 0.527435 0.527435 0.513032 0.519204 700 \; 0.515089 0.524691
0.515089 0.515089 700 \; 0.515775 0.530178 0.502743 0.530178 70 \;
0.526063 0.528807 0.51989 0.528807 70 \; 0.528121 0.532922 0.518519
0.528121 700 \; 0.528807 0.528807 0.517833 0.517833 700 \; 0.518519
0.527435 0.518519 0.526063 70 \; 0.529492 0.538409 0.529492 0.530864
70 \; 0.526749 0.532236 0.517147 0.532236 70 \; 0.530864 0.530864 0.526063
0.528807 700 \; 0.525377 0.538409 0.525377 0.532236 70 \; 0.528121
0.571331 0.528121 0.558299 70 \; 0.558299 0.574074 0.558299 0.569959
70 \; 0.564472 0.564472 0.544582 0.556241 700 \; 0.558985 0.575446
0.558985 0.575446 70 \; 0.571331 0.585734 0.571331 0.585734 70 \; 0.580247
0.583676 0.571331 0.571331 700 \; 0.567901 0.567901 0.545953 0.545953
700 \; 0.549383 0.559671 0.545953 0.545953 700 \; 0.549383 0.562414
0.54321 0.54321 700 \; 0.543896 0.546639 0.532922 0.545953 70 \; 0.545267
0.548011 0.534294 0.545267 700 \; 0.548011 0.575446 0.548011 0.572016
70 \; 0.567901 0.572016 0.541152 0.561043 700 \; 0.556927 0.569273
0.52332 0.529492 700 \; 0.532236 0.569273 0.532236 0.545267 70 \; 0.545267
0.548011 0.54321 0.547325 70 \; 0.55144 0.587792 0.548697 0.556927
70 \; 0.552126 0.552126 0.541152 0.549383 700 \; 0.553498 0.574074
0.553498 0.574074 70 \; \;;
#X coords 0 0 1600 400 800 400 2 0 0;
#X restore 516 80 pd plot;
#X msg 127 306 \; pd-plot clear \;;
#X msg 225 347 traverse pd-plot \, bang;
#X obj 225 369 pointer;
#X obj 81 396 append candle-arr x y;
#X msg 81 373 0 0;
#X msg 80 445 128;
#X obj 80 467 setsize candle-arr candles;
#X msg 203 66 listen 3000;
#X obj 203 88 netreceive -u;
#X obj 203 139 s reset;
#X msg 260 45 listen 0;
#X obj 203 114 route reset candle;
#X obj 264 139 s candle;
#X obj 44 608 set candle open high low close sentiment;
#X obj 197 549 + 1;
#X obj 197 571 mod 128;
#X obj 44 527 r candle;
#X obj 44 549 t a b b;
#X obj 321 581 element candle-arr candles;
#X obj 95 255 loadbang;
#X obj 81 279 t b b b;
#X obj 81 223 bng 15 250 50 0 empty empty empty 17 7 0 10 -262144 -1
-1;
#X obj 81 421 t b p p;
#X obj 605 609 get candle high;
#X obj 783 555 pointer;
#X floatatom 605 631 5 0 0 0 - - -, f 5;
#X floatatom 605 529 5 0 0 0 - - -, f 5;
#X msg 783 533 traverse pd-plot \, next;
#X obj 155 551 f 0;
#X obj 184 497 r reset;
#X msg 184 525 0;
#X obj 604 579 element candle-arr candles;
#X connect 4 0 5 0;
#X connect 5 0 6 2;
#X connect 6 0 25 0;
#X connect 7 0 6 0;
#X connect 8 0 9 0;
#X connect 10 0 11 0;
#X connect 11 0 14 0;
#X connect 13 0 11 0;
#X connect 14 0 12 0;
#X connect 14 1 15 0;
#X connect 17 0 18 0;
#X connect 18 0 31 1;
#X connect 19 0 20 0;
#X connect 20 0 16 0;
#X connect 20 2 31 0;
#X connect 21 0 16 5;
#X connect 22 0 23 0;
#X connect 23 0 7 0;
#X connect 23 1 4 0;
#X connect 23 2 3 0;
#X connect 24 0 23 0;
#X connect 25 0 8 0;
#X connect 25 1 21 1;
#X connect 25 2 9 1;
#X connect 26 0 28 0;
#X connect 27 0 34 1;
#X connect 29 0 34 0;
#X connect 30 0 27 0;
#X connect 31 0 17 0;
#X connect 31 0 21 0;
#X connect 32 0 33 0;
#X connect 33 0 31 1;
#X connect 34 0 26 0;
