#N canvas 306 338 450 300 10;
#X obj 151 35 loadbang;
#X obj 151 63 f \$1;
#X msg 151 145 listen \$1;
#X obj 151 168 netreceive -u;
#X obj 151 215 send, f 6;
#X msg 235 82 listen 0;
#X msg 235 61 bang;
#X msg 190 192 symbol udp_listener-\$1;
#X connect 0 0 1 0;
#X connect 1 0 2 0;
#X connect 1 0 7 0;
#X connect 2 0 3 0;
#X connect 3 0 4 0;
#X connect 5 0 3 0;
#X connect 6 0 1 0;
#X connect 7 0 4 1;
